<svg width="48" height="48" viewBox="0 0 48 48" fill="none" xmlns="http://www.w3.org/2000/svg">
<g clip-path="url(#clip0)">
<path d="M20.5418 31.5789C23.6501 31.5789 25.455 29.9746 25.7558 26.2646H14.6259C15.1272 29.5735 17.5337 31.5789 20.5418 31.5789Z" fill="#010101"/>
<path d="M28.3628 30.476C26.4577 33.6846 23.6501 35.0884 20.5418 35.0884C14.4253 35.0884 9.91321 30.6765 9.91321 24.0587V23.7579C9.91321 23.4571 9.91321 23.1563 9.91321 22.8555H35.9833V2.19995L20.5418 13.8312L5 2.19995V44.8145H36.0836V35.0884C33.1757 35.0884 30.3682 33.6846 28.3628 30.476Z" fill="#010101"/>
<path d="M30.9698 26.2646H42.2C41.6987 29.5735 39.0917 31.5789 36.0836 31.5789C33.0755 31.5789 31.1704 29.9746 30.9698 26.2646Z" fill="#010101"/>
</g>
<defs>
<clipPath id="clip0">
<rect x="5" y="2.19995" width="37.2" height="42.6146" fill="white"/>
</clipPath>
</defs>
</svg>
